# xmcd CD database file
#
# Track frame offsets:
#	150
#	49006
#	111811
#	170970
#	211533
#
# Disc length: 3644 seconds
#
# Revision: 0
# Processed by: cddbd v1.5.2PL0 Copyright (c) Steve Scherf et al.
# Submitted via: CDex 1.70beta2
#
DISCID=3e0e3a05
DTITLE=Michael Benghiat - Yoga
DYEAR=2002
DGENRE=New Age
TTITLE0=Morning Mist
TTITLE1=Triste
TTITLE2=Astral Voyage
TTITLE3=Dreams
TTITLE4=Shadows
EXTD=YEAR: 2002
EXTT0=
EXTT1=
EXTT2=
EXTT3=
EXTT4=
PLAYORDER=
